<svg width="192" height="196" viewBox="0 0 192 196" fill="none" xmlns="http://www.w3.org/2000/svg">
<g clip-path="url(#clip0_153_504)">
<path d="M191.45 149.632H0V149.73H191.45V149.632Z" fill="#E6E6E6"/>
<path d="M47.7957 155.553H35.1133V155.651H47.7957V155.553Z" fill="#E6E6E6"/>
<path d="M31.1 155.553H23.751V155.651H31.1V155.553Z" fill="#E6E6E6"/>
<path d="M80.6211 156.993H73.2725V157.091H80.6211V156.993Z" fill="#E6E6E6"/>
<path d="M118.935 159.178H102.396V159.276H118.935V159.178Z" fill="#E6E6E6"/>
<path d="M98.9874 159.178H96.5625V159.276H98.9874V159.178Z" fill="#E6E6E6"/>
<path d="M173.585 156.993H137.716V157.091H173.585V156.993Z" fill="#E6E6E6"/>
<path d="M90.7531 132.181H16.8155C15.6105 132.181 14.6299 131.179 14.6299 129.948V23.7365C14.6299 22.505 15.6105 21.5029 16.8155 21.5029H90.7531C91.9577 21.5029 92.9383 22.505 92.9383 23.7365V129.948C92.9383 131.179 91.9577 132.181 90.7531 132.181ZM16.8155 21.6011C15.6629 21.6011 14.7256 22.559 14.7256 23.7369V129.948C14.7256 131.126 15.6629 132.084 16.8155 132.084H90.7531C91.9052 132.084 92.8426 131.126 92.8426 129.948V23.7365C92.8426 22.559 91.9052 21.6008 90.7531 21.6008L16.8155 21.6011Z" fill="#E6E6E6"/>
<path d="M173.573 132.181H99.6354C98.4308 132.181 97.4502 131.179 97.4502 129.948V23.7365C97.4502 22.505 98.4308 21.5029 99.6354 21.5029H173.573C174.778 21.5029 175.758 22.505 175.758 23.7365V129.948C175.759 131.179 174.778 132.181 173.573 132.181ZM99.6354 21.6011C98.4833 21.6011 97.5459 22.559 97.5459 23.7369V129.948C97.5459 131.126 98.4833 132.084 99.6354 132.084H173.573C174.725 132.084 175.662 131.126 175.662 129.948V23.7365C175.662 22.559 174.725 21.6008 173.573 21.6008L99.6354 21.6011Z" fill="#E6E6E6"/>
<path d="M102.387 116.208H93.9678V150.342H102.387V116.208Z" fill="#E0E0E0"/>
<path d="M100.788 150.342H102.387V145.694H99.1113L100.788 150.342Z" fill="#FAFAFA"/>
<path d="M65.4928 116.208H57.0732V150.342H65.4928V116.208Z" fill="#E0E0E0"/>
<path d="M102.388 116.208H64.0972V147.49H102.388V116.208Z" fill="#FAFAFA"/>
<path d="M100.999 117.745V126.022H65.4856V117.745H100.999ZM101.147 117.594H65.3374V126.173H101.147V117.594Z" fill="#E0E0E0"/>
<path d="M65.6962 150.342H64.0972V145.694H67.3729L65.6962 150.342Z" fill="#FAFAFA"/>
<path d="M82.395 121.883C82.395 122.361 82.7741 122.749 83.242 122.749C83.7095 122.749 84.089 122.361 84.089 121.883C84.089 121.405 83.7099 121.018 83.242 121.018C82.7745 121.018 82.395 121.405 82.395 121.883Z" fill="#E6E6E6"/>
<path d="M100.999 127.711V135.987H65.4856V127.711H100.999ZM101.147 127.56H65.3374V136.138H101.147V127.56Z" fill="#E0E0E0"/>
<path d="M82.395 131.848C82.395 132.326 82.7741 132.714 83.242 132.714C83.7095 132.714 84.089 132.327 84.089 131.848C84.089 131.37 83.7099 130.983 83.242 130.983C82.7745 130.983 82.395 131.371 82.395 131.848Z" fill="#E6E6E6"/>
<path d="M100.999 137.676V145.952H65.4856V137.676H100.999ZM101.147 137.525H65.3374V146.104H101.147V137.525Z" fill="#E0E0E0"/>
<path d="M82.395 141.814C82.395 142.292 82.7741 142.68 83.242 142.68C83.7095 142.68 84.089 142.292 84.089 141.814C84.089 141.336 83.7099 140.949 83.242 140.949C82.7745 140.949 82.395 141.336 82.395 141.814Z" fill="#E6E6E6"/>
<path d="M60.3488 96.3838H51.9292V150.342H60.3488V96.3838Z" fill="#E0E0E0"/>
<path d="M58.75 150.342H60.349V145.694H57.0732L58.75 150.342Z" fill="#FAFAFA"/>
<path d="M28.881 96.3838H20.4614V150.342H28.881V96.3838Z" fill="#E0E0E0"/>
<path d="M60.349 96.3838H27.4858V147.49H60.349V96.3838Z" fill="#FAFAFA"/>
<path d="M58.9338 97.8309V109.402H28.9003V97.8309H58.9338ZM59.108 97.6528H28.7261V109.58H59.108V97.6528Z" fill="#E0E0E0"/>
<path d="M58.9337 110.808V141.5H44.6282V110.808H58.9337ZM59.108 110.63H44.4536V141.679H59.108V110.63Z" fill="#E0E0E0"/>
<path d="M43.2058 110.808V141.5H28.9003V110.808H43.2058ZM43.3804 110.63H28.7261V141.679H43.3804V110.63Z" fill="#E0E0E0"/>
<path d="M29.0848 150.342H27.4858V145.694H30.7615L29.0848 150.342Z" fill="#FAFAFA"/>
<path d="M43.0703 103.616C43.0703 104.094 43.4494 104.482 43.9173 104.482C44.3848 104.482 44.7643 104.094 44.7643 103.616C44.7643 103.138 44.3852 102.75 43.9173 102.75C43.4494 102.751 43.0703 103.138 43.0703 103.616Z" fill="#E6E6E6"/>
<path d="M46.1025 125.422C46.1025 125.9 46.4816 126.288 46.9495 126.288C47.4174 126.288 47.7965 125.9 47.7965 125.422C47.7965 124.944 47.4174 124.557 46.9495 124.557C46.4816 124.557 46.1025 124.944 46.1025 125.422Z" fill="#E6E6E6"/>
<path d="M40.0386 125.422C40.0386 125.9 40.4176 126.288 40.8855 126.288C41.3531 126.288 41.7325 125.9 41.7325 125.422C41.7325 124.944 41.3535 124.557 40.8855 124.557C40.418 124.557 40.0386 124.944 40.0386 125.422Z" fill="#E6E6E6"/>
<path d="M39.0843 81.3394H35.5326C35.5326 81.3394 36.149 84.6948 36.149 86.6693C36.149 88.6438 33.4473 96.3837 37.3084 96.3837C41.1692 96.3837 38.4679 88.6434 38.4679 86.6693C38.4675 84.6944 39.0843 81.3394 39.0843 81.3394Z" fill="#E0E0E0"/>
<path d="M25.5791 89.2744V91.6328C25.5791 94.2455 27.6709 96.3832 30.2279 96.3832H32.5356C35.0923 96.3832 37.184 94.2455 37.184 91.6328V89.2744H25.5791Z" fill="#F5F5F5"/>
<path d="M74.9209 111.233C74.9209 113.969 77.9194 116.208 81.5841 116.208H84.892C88.5571 116.208 91.5556 113.969 91.5556 111.233H74.9209Z" fill="#E0E0E0"/>
<path d="M162.582 107.229C160.575 108.902 157.806 111.967 155.269 116.279C153.579 119.15 152.56 122.159 152.113 126.133C152.122 121.634 152.136 116.799 152.152 112.237C152.661 111.063 153.825 108.357 154.66 106.219C157.447 99.0848 158.484 97.3306 160.99 91.1774C164.333 82.9703 167.758 73.232 166.777 74.0103C164.779 75.5959 157.12 90.2508 156.293 92.3486C153.445 99.5642 152.652 104.824 152.16 109.899C152.175 105.614 152.191 101.679 152.207 98.6427C152.259 88.7396 152.424 85.5435 152.504 84.5578C152.814 84.0569 153.18 83.4731 153.393 83.1585C155.192 80.5004 155.886 78.236 157.581 74.2713C159.983 68.6534 162.051 58.6792 161.446 59.1824C158.928 61.277 156.942 65.7805 154.333 71.5189C151.723 77.2573 152.469 80.5572 151.951 85.4582C151.843 86.42 151.759 90.0493 151.699 95.0795C151.022 89.7206 149.753 86.1891 147.436 82.9801C144.587 79.033 141.83 76.3667 139.808 74.9741C137.785 73.5818 143.3 83.2775 145.937 87.5094C148.286 91.278 150.45 94.6037 151.669 97.8788C151.605 104.696 151.575 113.329 151.575 121.365C150.97 117.708 149.982 113.77 148.664 110.721C147.08 107.057 144.644 101.437 142.705 99.5313C142.239 99.0735 144.732 110.002 146.333 112.909C147.933 115.815 149.108 118.554 150.115 120.201C150.35 120.585 151.13 122.067 151.575 122.92C151.579 132.73 151.628 141.386 151.712 144.332H152.127C152.098 143.572 152.094 138.582 152.103 131.977C153.101 128.391 155.385 124.299 157.27 120.565C159.327 116.489 164.588 105.555 162.582 107.229Z" fill="#E0E0E0"/>
<path d="M157.923 150.343H145.922L145.016 138.32H158.829L157.923 150.343Z" fill="#F0F0F0"/>
<path d="M159.724 139.721H144.122L143.675 135.665H160.171L159.724 139.721Z" fill="#F5F5F5"/>
<path d="M47.5795 29.5425H26.1172V53.6266H47.5795V29.5425Z" fill="#E0E0E0"/>
<path d="M49.904 29.5425H27.7349V53.6266H49.904V29.5425Z" fill="#F5F5F5"/>
<path d="M48.0464 51.7286L48.0464 31.4404L29.5918 31.4404L29.5918 51.7286H48.0464Z" fill="white"/>
<path d="M43.5732 46.8116V36.3584H34.0651V46.8116H43.5732Z" fill="#F5F5F5"/>
<path d="M157.009 32.3501H137.071V54.7235H157.009V32.3501Z" fill="#E0E0E0"/>
<path d="M159.168 32.3501H138.574V54.7235H159.168V32.3501Z" fill="#F5F5F5"/>
<path d="M157.443 52.9602V34.1133H140.299V52.9602H157.443Z" fill="white"/>
<path d="M148.871 49.0026C151.825 49.0026 154.22 46.5556 154.22 43.537C154.22 40.5184 151.825 38.0713 148.871 38.0713C145.917 38.0713 143.523 40.5184 143.523 43.537C143.523 46.5556 145.917 49.0026 148.871 49.0026Z" fill="#F5F5F5"/>
<path d="M69.8751 43.9033H53.9541V61.7693H69.8751V43.9033Z" fill="#E0E0E0"/>
<path d="M71.5999 43.9033H55.1543V61.7693H71.5999V43.9033Z" fill="#F5F5F5"/>
<path d="M70.2222 60.3617V45.3115H56.5323V60.3617H70.2222Z" fill="white"/>
<path d="M63.3773 49.0317L59.6333 55.6592H67.1213L63.3773 49.0317Z" fill="#F5F5F5"/>
<path d="M95.7255 167.305C136.727 167.305 169.966 165.322 169.966 162.875C169.966 160.428 136.727 158.444 95.7255 158.444C54.7238 158.444 21.4854 160.428 21.4854 162.875C21.4854 165.322 54.7238 167.305 95.7255 167.305Z" fill="#F5F5F5"/>
<path d="M133.727 63.9513L129.929 62.3774C129.929 62.3774 124.916 71.7189 123.481 72.1905C121.527 72.8322 117.487 74.6161 115.087 74.9503C114.763 75.3369 114.229 76.5562 114.28 77.0007C117.501 78.0983 124.577 76.6407 126.092 75.4915C129.545 72.8701 133.727 63.9513 133.727 63.9513Z" fill="#E58A7B"/>
<path d="M134.896 61.8319C135.603 64.508 131.766 69.8833 131.766 69.8833L126.727 66.9943C126.727 66.9943 127.666 64.7847 128.816 62.5343C130.674 58.9003 134.089 58.7778 134.896 61.8319Z" fill="#407BFF"/>
<path opacity="0.2" d="M134.896 61.8319C135.603 64.508 131.766 69.8833 131.766 69.8833L126.727 66.9943C126.727 66.9943 127.666 64.7847 128.816 62.5343C130.674 58.9003 134.089 58.7778 134.896 61.8319Z" fill="black"/>
<path opacity="0.2" d="M128.736 68.1442L130.715 69.2782L131.061 63.0698C129.912 63.9745 129.098 66.6968 128.736 68.1442Z" fill="black"/>
<path d="M131.588 59.8155C131.588 59.8155 127.676 68.7121 129.957 85.2801C134.603 85.2801 143.116 85.2801 145.376 85.2801C145.621 82.8611 144.811 71.061 147.748 59.6636C147.748 59.6636 145.136 59.1217 142.624 58.9976C140.66 58.9006 137.811 58.8364 136.07 58.998C133.774 59.2109 131.588 59.8155 131.588 59.8155Z" fill="#407BFF"/>
<path opacity="0.2" d="M131.588 59.8155C131.588 59.8155 127.676 68.7121 129.957 85.2801C134.603 85.2801 143.116 85.2801 145.376 85.2801C145.621 82.8611 144.811 71.061 147.748 59.6636C147.748 59.6636 145.136 59.1217 142.624 58.9976C140.66 58.9006 137.811 58.8364 136.07 58.998C133.774 59.2109 131.588 59.8155 131.588 59.8155Z" fill="black"/>
<path d="M128.013 163.228C127.989 163.648 133.835 163.989 141.07 163.989C148.306 163.989 154.191 163.648 154.215 163.228C154.24 162.808 148.393 162.467 141.158 162.467C133.922 162.467 128.037 162.808 128.013 163.228Z" fill="#E8ECF1"/>
<path d="M138.664 152.669L135.92 153.75L138.273 159.991L141.017 158.91L138.664 152.669Z" fill="#E58A7B"/>
<path d="M150.5 160.22H147.617L146.559 153.397H149.442L150.5 160.22Z" fill="#E58A7B"/>
<path d="M147.432 159.878H150.671C150.789 159.878 150.886 159.962 150.905 160.08L151.324 162.698C151.367 162.97 151.144 163.227 150.872 163.222C149.742 163.202 149.196 163.134 147.772 163.134C146.896 163.134 145.086 163.228 143.875 163.228C142.692 163.228 142.577 162.005 143.079 161.894C145.329 161.397 146.205 160.713 146.953 160.06C147.088 159.942 147.259 159.878 147.432 159.878Z" fill="#263238"/>
<path d="M137.834 158.847L140.905 157.934C141.02 157.9 141.138 157.951 141.189 158.056L142.327 160.402C142.445 160.645 142.305 160.951 142.039 161.025C140.927 161.335 140.179 161.529 138.786 161.943C137.824 162.228 136.845 162.694 135.895 163.004C135.236 163.218 133.691 163.227 132.89 163.227C131.706 163.227 131.443 161.952 131.95 161.894C133.234 161.746 133.406 161.814 134.115 161.451C135.286 160.851 136.193 160.353 137.207 159.268C137.384 159.079 137.591 158.919 137.834 158.847Z" fill="#263238"/>
<path d="M115.572 74.9222L112.4 73.5581L111.094 77.1495C111.094 77.1495 112.924 77.4887 115.015 77.1495L115.572 74.9222Z" fill="#E58A7B"/>
<path d="M110.042 73.4697L109.958 75.8594L111.094 77.1491L112.4 73.5578L110.042 73.4697Z" fill="#E58A7B"/>
<path d="M138.675 152.662L135.93 153.745L137.145 156.961L139.889 155.878L138.675 152.662Z" fill="#CF6F64"/>
<path d="M149.443 153.399H146.559L147.106 156.916H149.99L149.443 153.399Z" fill="#CF6F64"/>
<path opacity="0.2" d="M129.467 80.7986C129.522 81.5064 129.589 82.2299 129.672 82.9738L141.138 79.17C142.928 78.6229 144.486 77.4729 145.549 75.901C145.592 74.8555 145.651 73.7579 145.737 72.6118C145.777 72.053 145.824 71.4817 145.875 70.903C145.93 70.3 145.993 69.6845 146.064 69.0654L129.467 80.7986Z" fill="black"/>
<path d="M133.211 67.9646L132.82 67.9173C133.048 65.9647 134.474 64.4214 135.981 64.4582L135.969 64.8604C134.669 64.8217 133.415 66.2135 133.211 67.9646Z" fill="white"/>
<path d="M135.251 71.5774C135.23 71.5774 135.208 71.577 135.187 71.5767L135.198 71.1744C136.515 71.2237 137.752 69.8209 137.956 68.0698L138.347 68.1176C138.123 70.0424 136.741 71.5774 135.251 71.5774Z" fill="white"/>
<path d="M142.407 51.4551C141.87 53.6104 141.231 57.5594 142.624 58.9974C142.624 58.9974 141.651 61.1836 137.732 61.1836C134.151 61.1836 136.069 58.9974 136.069 58.9974C138.454 58.4234 138.496 56.6402 138.182 54.9654L142.407 51.4551Z" fill="#E58A7B"/>
<path d="M140.685 52.8877L138.185 54.9643C138.26 55.3607 138.314 55.7626 138.319 56.1531C139.05 56.897 140.517 55.0125 140.667 54.051C140.742 53.5721 140.749 53.1111 140.685 52.8877Z" fill="#CF6F64"/>
<path d="M133.887 51.4286C134.253 52.0993 134.9 52.5168 135.511 52.6557C136.43 52.865 136.892 52.0007 136.639 51.1308C136.411 50.3478 135.658 49.2956 134.734 49.476C133.823 49.654 133.467 50.6616 133.887 51.4286Z" fill="#CF6F64"/>
<path d="M135.403 44.5299C133.971 45.2006 133.467 51.0142 135.267 51.8739C137.067 52.7331 138.116 43.2602 135.403 44.5299Z" fill="#263238"/>
<path d="M142.845 48.2115C142.502 51.1299 142.446 52.8473 140.918 54.3452C138.619 56.5983 135.17 55.262 134.656 52.3488C134.193 49.7267 134.831 45.3946 137.693 44.2332C140.513 43.089 143.187 45.2932 142.845 48.2115Z" fill="#E58A7B"/>
<path d="M138.14 46.0426C140.259 45.4889 141.818 45.1117 141.261 46.9187C140.52 49.326 139.631 51.6581 140.824 51.7669C141.549 51.833 144.766 50.4381 144.357 49.0278C144.002 47.7991 145.497 47.4677 145.772 46.8412C146.765 44.585 143.928 44.8781 144.433 43.5128C144.925 42.1836 142.148 39.9371 140.609 41.0347C138.118 42.8116 133.837 42.7862 136.088 39.8718C137.699 37.7846 134.824 38.2131 134.824 38.2131C134.824 38.2131 136.561 39.266 133.637 40.8939C130.538 42.6187 133.375 47.2885 138.14 46.0426Z" fill="#263238"/>
<path d="M143.95 51.4286C143.506 52.0993 142.812 52.5168 142.185 52.6557C141.241 52.865 140.879 52.0007 141.232 51.1308C141.55 50.3478 142.424 49.2956 143.327 49.476C144.217 49.654 144.457 50.6616 143.95 51.4286Z" fill="#E58A7B"/>
<path d="M129.957 85.2802C129.957 85.2802 127.369 108.953 127.167 117.937C126.957 127.282 135.938 156.438 135.938 156.438L140.537 154.465C140.537 154.465 135.182 127.828 135.926 118.65C136.737 108.645 140.093 85.2798 140.093 85.2798H129.957V85.2802Z" fill="#407BFF"/>
<path opacity="0.2" d="M136.389 91.7799C134.327 96.1546 135.716 104.804 136.834 109.931C137.259 106.312 137.762 102.384 138.242 98.7485C138.195 93.1592 137.77 88.8447 136.389 91.7799Z" fill="black"/>
<path d="M140.329 152.931C140.351 152.922 140.875 154.429 140.875 154.429L135.574 156.703L134.739 155.117L140.329 152.931Z" fill="#407BFF"/>
<path d="M135.427 85.2803C135.427 85.2803 137.407 107.795 138.719 116.23C140.156 125.466 145.801 156.235 145.801 156.235H151.081C151.081 156.235 147.917 126.212 147.319 117.067C146.671 107.141 145.376 85.2803 145.376 85.2803H135.427Z" fill="#407BFF"/>
<path d="M151.162 154.829C151.184 154.829 151.338 156.337 151.338 156.337H145.534L145.12 154.605L151.162 154.829Z" fill="#407BFF"/>
<path opacity="0.2" d="M149.139 153.046C149.114 153.046 149.093 153.027 149.09 153.002C149.061 152.729 146.208 125.624 145.671 117.407C145.089 108.491 143.918 88.7203 143.906 88.5215C143.904 88.4937 143.925 88.4698 143.952 88.4683C143.953 88.4683 143.954 88.4683 143.955 88.4683C143.981 88.4683 144.003 88.489 144.004 88.5156C144.016 88.714 145.187 108.484 145.77 117.4C146.306 125.615 149.159 152.718 149.188 152.991C149.191 153.019 149.171 153.043 149.144 153.046C149.142 153.046 149.14 153.046 149.139 153.046Z" fill="black"/>
<path d="M138.466 49.0276C138.452 49.2651 138.318 49.458 138.166 49.458C138.014 49.458 137.902 49.2655 137.916 49.0276C137.929 48.7901 138.063 48.5972 138.216 48.5972C138.368 48.5972 138.48 48.7901 138.466 49.0276Z" fill="#263238"/>
<path d="M135.838 49.0276C135.824 49.2651 135.69 49.458 135.538 49.458C135.386 49.458 135.274 49.2655 135.288 49.0276C135.302 48.7901 135.436 48.5972 135.588 48.5972C135.74 48.5972 135.852 48.7901 135.838 49.0276Z" fill="#263238"/>
<path d="M136.667 49.1455C136.667 49.1455 136.059 50.5166 135.439 51.1779C135.828 51.5704 136.538 51.3908 136.538 51.3908L136.667 49.1455Z" fill="#DF5753"/>
<path d="M136.733 52.388C136.696 52.388 136.667 52.3567 136.669 52.3183C136.671 52.28 136.704 52.2487 136.741 52.2487C137.762 52.2487 138.28 51.5201 138.286 51.5126C138.309 51.4805 138.352 51.4711 138.381 51.4923C138.412 51.5134 138.418 51.5565 138.396 51.5889C138.373 51.621 137.827 52.388 136.733 52.388Z" fill="#263238"/>
<path d="M138.933 48.3046C138.894 48.3202 138.85 48.3179 138.813 48.294C138.31 47.9708 137.842 48.1876 137.838 48.1903C137.773 48.224 137.688 48.1946 137.659 48.125C137.63 48.0553 137.664 47.972 137.734 47.9387C137.759 47.9266 138.345 47.6546 138.968 48.0557C139.031 48.096 139.046 48.1817 139.003 48.2474C138.986 48.2741 138.961 48.2936 138.933 48.3046Z" fill="#263238"/>
<path d="M134.822 47.5239C134.803 47.5184 134.785 47.5086 134.77 47.4937C134.716 47.4429 134.716 47.3548 134.77 47.2969C135.304 46.7197 135.924 46.8078 135.95 46.8117C136.023 46.8199 136.071 46.8939 136.055 46.9702C136.04 47.0461 135.968 47.0985 135.894 47.0876C135.874 47.0844 135.39 47.0214 134.963 47.482C134.925 47.5235 134.87 47.5379 134.822 47.5239Z" fill="#263238"/>
<path d="M149.228 63.5147L145.245 62.4312C145.245 62.4312 141.339 72.2559 139.96 72.8973C138.082 73.7702 133.329 76.7895 131.309 78.2455C131.196 78.7323 131.285 80.0299 131.539 80.3832C134.974 79.7454 141.582 77.1491 142.96 75.8293C146.102 72.8206 149.228 63.5147 149.228 63.5147Z" fill="#E58A7B"/>
<path d="M146.449 160.393C146.229 160.393 146.026 160.355 145.902 160.243C145.804 160.154 145.764 160.03 145.782 159.874C145.796 159.758 145.859 159.703 145.911 159.677C146.236 159.51 147.135 160.093 147.237 160.16C147.259 160.176 147.27 160.204 147.264 160.231C147.258 160.259 147.236 160.281 147.209 160.287C147.006 160.337 146.715 160.393 146.449 160.393ZM146.055 159.783C146.02 159.783 145.989 159.789 145.966 159.801C145.947 159.811 145.924 159.829 145.918 159.883C145.905 159.994 145.93 160.077 145.996 160.136C146.146 160.272 146.521 160.29 147.017 160.189C146.702 159.997 146.276 159.783 146.055 159.783Z" fill="#407BFF"/>
<path d="M147.193 160.289C147.182 160.289 147.171 160.286 147.161 160.281C146.872 160.115 146.332 159.47 146.412 159.141C146.426 159.082 146.475 158.979 146.64 158.958C146.748 158.945 146.843 158.975 146.926 159.047C147.245 159.327 147.265 160.178 147.265 160.214C147.266 160.239 147.253 160.264 147.231 160.277C147.219 160.285 147.206 160.289 147.193 160.289ZM146.68 159.095C146.67 159.095 146.66 159.096 146.649 159.097C146.56 159.108 146.549 159.15 146.545 159.168C146.498 159.362 146.837 159.85 147.121 160.08C147.101 159.831 147.038 159.335 146.833 159.156C146.786 159.115 146.736 159.095 146.68 159.095Z" fill="#407BFF"/>
<path d="M136.281 159.906C135.999 159.976 135.73 159.997 135.559 159.902C135.45 159.841 135.387 159.74 135.372 159.603C135.363 159.521 135.391 159.449 135.45 159.396C135.759 159.115 137.008 159.417 137.149 159.452C137.177 159.459 137.196 159.483 137.198 159.513C137.199 159.543 137.182 159.571 137.155 159.584C136.923 159.691 136.594 159.829 136.281 159.906ZM135.658 159.441C135.606 159.454 135.564 159.473 135.537 159.497C135.513 159.519 135.504 159.544 135.508 159.58C135.518 159.674 135.558 159.738 135.629 159.778C135.832 159.891 136.305 159.802 136.912 159.542C136.485 159.45 135.927 159.375 135.658 159.441Z" fill="#407BFF"/>
<path d="M137.142 159.587C137.133 159.59 137.123 159.59 137.113 159.588C136.742 159.518 135.95 159.068 135.942 158.731C135.941 158.652 135.977 158.544 136.158 158.48C136.29 158.43 136.426 158.44 136.553 158.504C136.969 158.713 137.186 159.465 137.196 159.496C137.202 159.52 137.196 159.546 137.179 159.565C137.169 159.576 137.156 159.584 137.142 159.587ZM136.237 158.599C136.224 158.602 136.21 158.607 136.196 158.611C136.078 158.654 136.079 158.703 136.079 158.72C136.083 158.922 136.634 159.293 137.022 159.419C136.945 159.203 136.759 158.767 136.486 158.629C136.404 158.588 136.322 158.578 136.237 158.599Z" fill="#407BFF"/>
<path d="M131.633 78.0146L127.64 79.8929L127.177 81.0441L128.652 82.0587C128.652 82.0587 131.406 81.7523 132.191 79.9441L131.633 78.0146Z" fill="#E58A7B"/>
<path d="M131.803 80.4499C131.553 78.934 131.066 78.2425 131.061 78.2359L131.691 77.7534C131.715 77.7867 132.294 78.5849 132.579 80.3164L131.803 80.4499Z" fill="#263238"/>
<path d="M132.483 78.5699C132.613 78.8974 132.405 79.2919 132.018 79.4515C131.632 79.6112 131.214 79.475 131.085 79.1475C130.955 78.82 131.163 78.4255 131.55 78.2659C131.936 78.1066 132.354 78.2424 132.483 78.5699Z" fill="#263238"/>
<path d="M124.942 81.4094L125.472 81.9583L129.055 80.3924L127.64 79.8931L124.942 81.4094Z" fill="#E58A7B"/>
<path opacity="0.2" d="M140.329 152.931C140.351 152.922 140.875 154.429 140.875 154.429L135.574 156.703L134.739 155.117L140.329 152.931Z" fill="black"/>
<path opacity="0.2" d="M151.162 154.829C151.184 154.829 151.338 156.337 151.338 156.337H145.534L145.12 154.605L151.162 154.829Z" fill="black"/>
<path d="M150.266 62.3891C151.319 65.8588 147.218 70.5986 147.218 70.5986L141.533 68.2273C141.533 68.2273 142.334 65.7065 143.858 62.3292C145.591 58.491 149.203 58.8874 150.266 62.3891Z" fill="#407BFF"/>
<path opacity="0.2" d="M150.266 62.3891C151.319 65.8588 147.218 70.5986 147.218 70.5986L141.533 68.2273C141.533 68.2273 142.334 65.7065 143.858 62.3292C145.591 58.491 149.203 58.8874 150.266 62.3891Z" fill="black"/>
<path d="M93.7625 27.6143H91.3169V28.0165H93.7625V27.6143Z" fill="#407BFF"/>
<path d="M125.439 43.5641L125.143 50.2783L125.536 50.2964L125.832 43.5822L125.439 43.5641Z" fill="#407BFF"/>
<path d="M124.677 29.4238H79.4952L75.2891 125.574H120.471L124.677 29.4238Z" fill="#407BFF"/>
<path opacity="0.56" d="M123.328 30.7432H78.1462L73.9404 126.893H119.122L123.328 30.7432Z" fill="#FAFAFA"/>
<path opacity="0.07" d="M121.979 32.0625H76.798L72.5918 128.212H117.774L121.979 32.0625Z" fill="#407BFF"/>
<path d="M116.837 73.9976H78.2722L77.9502 81.3563H116.515L116.837 73.9976Z" fill="white"/>
<path d="M99.4832 68.6304H78.5068L78.3628 71.9228H99.3388L99.4832 68.6304Z" fill="#407BFF"/>
<path d="M115.968 93.853H77.4036L77.0815 101.212H115.646L115.968 93.853Z" fill="white"/>
<path opacity="0.47" d="M108.896 111.144H82.9627L82.5771 119.963H108.51L108.896 111.144Z" fill="#407BFF"/>
<path d="M107.161 121.329H81.2284C81.2161 121.329 81.2042 121.324 81.1954 121.315C81.187 121.306 81.1824 121.293 81.1832 121.281L81.5691 112.461C81.5699 112.436 81.5902 112.417 81.6143 112.417H107.547C107.56 112.417 107.572 112.422 107.58 112.431C107.589 112.44 107.593 112.453 107.593 112.465L107.207 121.285C107.206 121.31 107.186 121.329 107.161 121.329ZM81.2759 121.236H107.118L107.499 112.51H81.6572L81.2759 121.236Z" fill="white"/>
<path d="M94.9509 88.4863H77.6381L77.4941 91.7787H94.8066L94.9509 88.4863Z" fill="#407BFF"/>
<path d="M108.401 50.2353C108.305 52.4387 107.523 54.4734 106.27 56.1263C104.379 58.6314 101.415 60.26 98.1534 60.26C94.8915 60.26 92.0745 58.6314 90.402 56.1263C89.2939 54.4734 88.6904 52.4391 88.7869 50.2353C89.0293 44.6984 93.6164 40.2109 99.0306 40.2109C104.449 40.2105 108.643 44.6984 108.401 50.2353Z" fill="white"/>
<path d="M109.324 42.3086C109.298 42.894 109.09 43.4348 108.757 43.8738C108.255 44.5394 107.467 44.9722 106.6 44.9722C105.734 44.9722 104.985 44.5394 104.541 43.8738C104.246 43.4348 104.086 42.894 104.112 42.3086C104.176 40.8373 105.395 39.645 106.834 39.645C108.273 39.645 109.388 40.8373 109.324 42.3086Z" fill="#407BFF"/>
<path d="M82.4251 77.677C82.3968 78.3282 81.8569 78.856 81.2197 78.856C80.5826 78.856 80.089 78.3282 80.1174 77.677C80.1457 77.0259 80.6856 76.498 81.3227 76.498C81.9603 76.4977 82.4538 77.0259 82.4251 77.677Z" fill="#263238"/>
<path d="M87.5892 77.677C87.5608 78.3282 87.0209 78.856 86.3838 78.856C85.7467 78.856 85.2531 78.3282 85.2814 77.677C85.3098 77.0259 85.8497 76.498 86.4868 76.498C87.1239 76.498 87.6179 77.0259 87.5892 77.677Z" fill="#263238"/>
<path d="M92.7537 77.677C92.7254 78.3282 92.1855 78.856 91.5484 78.856C90.9112 78.856 90.4177 78.3282 90.446 77.677C90.4743 77.0259 91.0142 76.498 91.6514 76.498C92.2885 76.4977 92.7821 77.0259 92.7537 77.677Z" fill="#263238"/>
<path d="M81.5565 97.5329C81.5281 98.184 80.9882 98.7119 80.3511 98.7119C79.7139 98.7119 79.2204 98.184 79.2487 97.5329C79.2771 96.8818 79.8169 96.3535 80.4541 96.3535C81.0912 96.3539 81.5848 96.8818 81.5565 97.5329Z" fill="#263238"/>
<path d="M86.721 97.5329C86.6927 98.184 86.1528 98.7119 85.5156 98.7119C84.8785 98.7119 84.3849 98.184 84.4133 97.5329C84.4416 96.8818 84.9815 96.3535 85.6186 96.3535C86.2562 96.3539 86.7493 96.8818 86.721 97.5329Z" fill="#263238"/>
<path d="M91.8851 97.5329C91.8567 98.184 91.3168 98.7119 90.6797 98.7119C90.0426 98.7119 89.549 98.184 89.5773 97.5329C89.6057 96.8818 90.1456 96.3535 90.7827 96.3535C91.4198 96.3535 91.9138 96.8818 91.8851 97.5329Z" fill="#263238"/>
<path d="M97.0496 97.5329C97.0213 98.184 96.4814 98.7119 95.8443 98.7119C95.2071 98.7119 94.7135 98.184 94.7419 97.5329C94.7702 96.8818 95.3101 96.3535 95.9473 96.3535C96.5844 96.3539 97.078 96.8818 97.0496 97.5329Z" fill="#263238"/>
<path d="M102.214 97.5329C102.185 98.184 101.645 98.7119 101.008 98.7119C100.371 98.7119 99.8776 98.184 99.9059 97.5329C99.9343 96.8818 100.474 96.3535 101.111 96.3535C101.748 96.3539 102.242 96.8818 102.214 97.5329Z" fill="#263238"/>
<path d="M102.707 46.8843C102.609 49.1234 100.754 50.9386 98.5625 50.9386C96.3716 50.9386 94.6746 49.1234 94.7726 46.8843C94.8706 44.6449 96.7262 42.8301 98.9175 42.8301C101.108 42.8301 102.805 44.6453 102.707 46.8843Z" fill="#407BFF"/>
<path d="M106.27 56.1256C104.378 58.6307 101.415 60.2593 98.1533 60.2593C94.8914 60.2593 92.0744 58.6307 90.4019 56.1256C92.2631 54.2317 95.2092 53.0015 98.4711 53.0015C101.736 53.0015 104.575 54.2317 106.27 56.1256Z" fill="#407BFF"/>
<path opacity="0.1" d="M102.707 46.8843C102.609 49.1234 100.754 50.9386 98.5625 50.9386C96.3716 50.9386 94.6746 49.1234 94.7726 46.8843C94.8706 44.6449 96.7262 42.8301 98.9175 42.8301C101.108 42.8301 102.805 44.6453 102.707 46.8843Z" fill="white"/>
<path opacity="0.1" d="M106.27 56.1256C104.378 58.6307 101.415 60.2593 98.1533 60.2593C94.8914 60.2593 92.0744 58.6307 90.4019 56.1256C92.2631 54.2317 95.2092 53.0015 98.4711 53.0015C101.736 53.0015 104.575 54.2317 106.27 56.1256Z" fill="white"/>
<path d="M49.9331 83.1292C49.5704 83.942 49.1887 84.8361 48.8537 85.7083C48.5159 86.5887 48.179 87.4699 47.8853 88.3637C47.3148 90.1511 46.7799 91.955 46.5164 93.764L46.4291 94.34C46.4222 94.4093 46.4272 94.5079 46.4571 94.6315C46.513 94.88 46.6646 95.2126 46.8779 95.5389C47.309 96.1991 47.9202 96.8674 48.5791 97.488C49.2366 98.1184 49.9507 98.7214 50.6927 99.2939C51.4275 99.8714 52.2025 100.437 52.9606 100.967L52.2469 102.34C50.4251 101.526 48.7285 100.553 47.085 99.3314C46.2771 98.7022 45.4792 98.0249 44.7723 97.1092C44.4239 96.6475 44.0812 96.1259 43.8568 95.4372C43.7481 95.0936 43.6723 94.7051 43.6719 94.2848C43.6746 94.1882 43.6795 94.0524 43.686 93.9874L43.7048 93.793L43.7431 93.404C43.9514 91.3297 44.4009 89.3361 44.9933 87.4022C45.2919 86.4365 45.6105 85.4806 45.9743 84.5426C46.3457 83.5984 46.7121 82.6922 47.1766 81.7417L49.9331 83.1292Z" fill="#E58A7B"/>
<path d="M52.4247 100.733L55.1303 99.3306L54.4315 102.369C54.4315 102.369 52.5737 102.9 51.7095 101.978L52.4247 100.733Z" fill="#E58A7B"/>
<path d="M57.6081 99.8295L56.8882 102.342L54.4312 102.37L55.1303 99.3306L57.6081 99.8295Z" fill="#E58A7B"/>
<path d="M61.4297 68.478C61.4297 68.478 61.6644 69.36 62.0366 70.0248C61.7169 70.33 61.4297 70.224 61.4297 70.224V68.478Z" fill="#DF5753"/>
<path d="M61.3498 68.5013C61.5082 68.5013 61.6366 68.3006 61.6366 68.0529C61.6366 67.8053 61.5082 67.6045 61.3498 67.6045C61.1914 67.6045 61.063 67.8053 61.063 68.0529C61.063 68.3006 61.1914 68.5013 61.3498 68.5013Z" fill="#263238"/>
<path d="M61.2793 67.6182L61.8613 67.4468C61.8613 67.4468 61.5626 67.9116 61.2793 67.6182Z" fill="#263238"/>
<path d="M53.95 71.3486C54.2995 73.1701 54.6484 76.5079 53.4009 77.7233C53.4009 77.7233 53.8883 79.571 57.2004 79.571C60.8425 79.571 58.9411 77.7233 58.9411 77.7233C56.9534 77.2381 57.0047 75.7312 57.3509 74.3159L53.95 71.3486Z" fill="#E58A7B"/>
<path d="M52.9833 67.203C53.1659 70.2442 53.1797 71.5351 54.683 73.096C56.9436 75.4438 60.5586 74.5493 61.2689 71.514C61.9079 68.7815 61.5017 64.2675 58.5889 63.0572C55.7187 61.8649 52.8003 64.1618 52.9833 67.203Z" fill="#E58A7B"/>
<path d="M53.2767 63.762C51.7846 64.3181 49.7939 63.9045 50.575 68.6114C51.402 73.5954 50.1289 75.2349 50.1289 75.2349C50.1289 75.2349 55.7928 76.4679 61.5746 75.1614C61.5746 75.1614 59.8094 72.0067 60.3049 69.7047C60.9366 66.7688 60.4358 65.6837 60.4358 65.6837C60.4358 65.6837 55.375 62.9802 53.2767 63.762Z" fill="#263238"/>
<path d="M59.5949 68.7876C59.5887 69.3902 59.7955 69.9971 60.0635 70.4186C60.4667 71.0529 60.9453 70.7946 61.0652 70.1361C61.1732 69.5436 61.0931 68.4996 60.5766 68.0946C60.0681 67.6963 59.6021 68.0989 59.5949 68.7876Z" fill="#E58A7B"/>
<path d="M51.9806 64.2944C51.5499 63.0637 53.5961 61.171 57.9221 61.9583C62.2481 62.7456 62.438 66.4223 62.438 66.4223L61.5627 65.3607L61.6021 66.4786L57.1563 67.3516L51.9806 64.2944Z" fill="#263238"/>
<path d="M52.3473 77.9305C52.2875 77.5544 52.5349 77.2003 52.9025 77.1385C54.2495 76.9111 57.3112 76.451 58.8524 76.6689C59.9972 76.8309 60.3001 77.5141 60.3483 78.0729C60.3843 78.4873 60.0489 78.8367 59.6423 78.8179L52.984 78.5104C52.6643 78.4955 52.3982 78.2537 52.3473 77.9305Z" fill="#407BFF"/>
<path opacity="0.6" d="M52.3473 77.9305C52.2875 77.5544 52.5349 77.2003 52.9025 77.1385C54.2495 76.9111 57.3112 76.451 58.8524 76.6689C59.9972 76.8309 60.3001 77.5141 60.3483 78.0729C60.3843 78.4873 60.0489 78.8367 59.6423 78.8179L52.984 78.5104C52.6643 78.4955 52.3982 78.2537 52.3473 77.9305Z" fill="black"/>
<path d="M56.1948 146.292L58.6626 148.043L62.7949 142.32L60.3271 140.569L56.1948 146.292Z" fill="#E58A7B"/>
<path d="M50.4341 146.177L53.0447 147.696L56.7018 141.643L54.0915 140.124L50.4341 146.177Z" fill="#E58A7B"/>
<path d="M62.7932 142.321L60.6639 145.272L58.1953 143.52L60.3246 140.57L62.7932 142.321Z" fill="#CF6F64"/>
<path d="M54.0902 140.125L56.7015 141.645L54.815 144.765L52.2036 143.245L54.0902 140.125Z" fill="#CF6F64"/>
<path d="M58.2769 97.0381C58.2769 97.0381 67.9183 109.456 66.1095 121.331C64.6484 130.922 56.1874 143.91 56.1874 143.91L52.2091 141.889C52.2091 141.889 56.5317 133.258 59.3701 124.108C60.5605 120.271 60.0532 116.044 57.8278 112.723C52.9439 105.433 45.1193 109.77 50.3827 97.0385L58.2769 97.0381Z" fill="#407BFF"/>
<path opacity="0.6" d="M58.2769 97.0381C58.2769 97.0381 67.9183 109.456 66.1095 121.331C64.6484 130.922 56.1874 143.91 56.1874 143.91L52.2091 141.889C52.2091 141.889 56.5317 133.258 59.3701 124.108C60.5605 120.271 60.0532 116.044 57.8278 112.723C52.9439 105.433 45.1193 109.77 50.3827 97.0385L58.2769 97.0381Z" fill="black"/>
<path opacity="0.4" d="M63.0061 105.017L61.6055 103.594C61.6055 103.706 64.3206 120.832 65.0837 125.645C65.544 124.169 65.8982 122.714 66.1107 121.331C66.9959 115.516 65.1347 109.569 63.0061 105.017Z" fill="black"/>
<path d="M62.5828 97.038C62.5828 97.038 74.1919 112.643 74.5186 122.001C74.7923 129.842 61.8733 144.988 61.8733 144.988L58.1228 142.508C58.1228 142.508 65.677 131.741 67.5789 122.939C66.8537 114.227 51.2896 97.0376 51.2896 97.0376H62.5828V97.038Z" fill="#407BFF"/>
<path opacity="0.6" d="M62.5828 97.038C62.5828 97.038 74.1919 112.643 74.5186 122.001C74.7923 129.842 61.8733 144.988 61.8733 144.988L58.1228 142.508C58.1228 142.508 65.677 131.741 67.5789 122.939C66.8537 114.227 51.2896 97.0376 51.2896 97.0376H62.5828V97.038Z" fill="black"/>
<path d="M48.22 78.4208C46.9767 78.7205 45.7886 83.3327 45.7886 83.3327L50.6372 86.6404C50.6372 86.6404 52.2531 82.9951 51.6891 81.3982C51.1013 79.7351 49.7899 78.0424 48.22 78.4208Z" fill="#407BFF"/>
<path opacity="0.2" d="M49.1689 81.3882L48.8301 85.4064L50.6351 86.641C50.6351 86.641 51.4809 84.7311 51.7328 83.0665L49.1689 81.3882Z" fill="black"/>
<path d="M64.0187 78.5095C64.0187 78.5095 65.4496 79.0245 62.5832 97.038C57.7418 97.038 52.7384 97.038 50.3828 97.038C50.5877 91.9636 50.5934 88.8344 48.2202 78.4207C48.2202 78.4207 50.7765 77.8525 53.4009 77.723C55.454 77.6221 57.136 77.5548 58.941 77.7234C61.3204 77.9453 64.0187 78.5095 64.0187 78.5095Z" fill="#407BFF"/>
<path d="M65.2577 81.3699C65.5341 82.1505 65.8267 82.9949 66.1311 83.8057C66.4232 84.6286 66.7265 85.4499 67.0393 86.2678L67.9782 88.7255L68.2156 89.3399L68.3347 89.647L68.3944 89.8004C68.4047 89.8278 68.4028 89.8255 68.399 89.8227C68.3825 89.8153 68.3684 89.7378 68.131 89.5785C68.0146 89.5046 67.8193 89.4334 67.6309 89.4295C67.4414 89.4224 67.2913 89.4698 67.2051 89.5081C67.0324 89.5922 67.0297 89.6286 67.0336 89.6228C67.0447 89.6169 67.0803 89.5821 67.1193 89.5339C67.2867 89.3285 67.4888 88.9744 67.6661 88.6222C67.8472 88.2634 68.0184 87.8799 68.1888 87.491C68.5276 86.7111 68.8359 85.8972 69.1495 85.0821C69.4596 84.2647 69.7518 83.4351 70.0412 82.6032L70.9127 80.106L72.388 80.4859C72.0963 82.2722 71.7187 84.0217 71.2688 85.7775C71.049 86.6571 70.7948 87.5293 70.5042 88.4097C70.3594 88.8507 70.1975 89.2906 70.0114 89.739C69.818 90.1909 69.6262 90.6366 69.2839 91.1543C69.1939 91.2854 69.092 91.4239 68.95 91.5765C68.7999 91.7268 68.6264 91.9083 68.2523 92.0801C68.0662 92.1619 67.8074 92.2343 67.5087 92.2222C67.2112 92.2136 66.9095 92.1056 66.7008 91.9733C66.2766 91.6963 66.1299 91.4325 66.0043 91.2345C65.9461 91.1351 65.8964 91.0326 65.8619 90.9587L65.7891 90.8068L65.6436 90.5032L65.3542 89.8955C64.9759 89.0812 64.6052 88.2626 64.2541 87.435C63.9064 86.6055 63.5676 85.7712 63.239 84.9307C62.9247 84.0773 62.6138 83.2504 62.3369 82.3426L65.2577 81.3699Z" fill="#E58A7B"/>
<path d="M64.0187 78.5096C65.4852 78.8664 67.1329 83.2944 67.1329 83.2944L62.7747 87.0896C62.7747 87.0896 59.95 82.2614 60.5217 80.6672C61.1167 79.0069 62.1031 78.0431 64.0187 78.5096Z" fill="#407BFF"/>
<path d="M71.5935 78.7258L73.1232 77.4185L74.1873 79.1124L73.4035 80.5269C73.4035 80.5269 72.1552 81.6946 71.0502 81.1006C70.6933 80.2738 70.915 79.3057 71.5935 78.7258Z" fill="#E58A7B"/>
<path d="M75.8993 77.4224L75.7849 77.8485L73.3615 78.2644L73.1226 77.4185L75.8993 77.4224Z" fill="#E58A7B"/>
<path d="M62.1839 145.193L57.8115 142.303L58.5946 140.912L63.5083 143.999L62.1839 145.193Z" fill="#407BFF"/>
<path d="M54.7487 147.491C54.4011 147.491 53.9435 147.266 53.6663 147.109C53.6414 147.095 53.6272 147.067 53.6303 147.037C53.633 147.009 53.6525 146.985 53.6793 146.975C53.7972 146.937 54.8345 146.613 55.1282 146.865C55.1745 146.904 55.2262 146.978 55.2098 147.1C55.1883 147.263 55.1156 147.378 54.9938 147.439C54.9234 147.475 54.8399 147.491 54.7487 147.491ZM53.8876 147.064C54.3632 147.312 54.7461 147.403 54.9302 147.309C55.0087 147.27 55.0539 147.195 55.0692 147.081C55.0773 147.019 55.0562 146.992 55.0367 146.976C54.8824 146.843 54.3073 146.947 53.8876 147.064Z" fill="#263238"/>
<path d="M53.7007 147.118C53.6816 147.118 53.6632 147.11 53.6498 147.096C53.6322 147.077 53.6257 147.05 53.6326 147.025C53.6425 146.989 53.8815 146.139 54.2747 145.946C54.3796 145.894 54.4861 145.892 54.5902 145.936C54.7556 146.007 54.7721 146.131 54.7663 146.198C54.7395 146.549 54.0377 147.035 53.7176 147.115C53.7122 147.117 53.7065 147.118 53.7007 147.118ZM54.4428 146.051C54.4076 146.051 54.372 146.06 54.336 146.077C54.1016 146.193 53.9048 146.651 53.8106 146.93C54.1476 146.785 54.6074 146.401 54.6239 146.187C54.6266 146.152 54.6189 146.106 54.5343 146.07C54.5041 146.057 54.4734 146.051 54.4428 146.051Z" fill="#263238"/>
<path d="M60.2182 149.182C59.7871 149.182 59.1859 148.616 58.857 148.268C58.8359 148.246 58.831 148.212 58.8444 148.185C58.8581 148.157 58.8926 148.142 58.9171 148.145C59.0687 148.165 60.4005 148.349 60.5885 148.733C60.6245 148.808 60.6214 148.887 60.5797 148.962C60.5092 149.089 60.407 149.162 60.2764 149.178C60.2576 149.181 60.2381 149.182 60.2182 149.182ZM59.1089 148.32C59.5929 148.801 60.0156 149.067 60.2588 149.034C60.3438 149.023 60.4081 148.976 60.456 148.89C60.4744 148.857 60.4759 148.828 60.461 148.798C60.3587 148.589 59.6477 148.409 59.1089 148.32Z" fill="#263238"/>
<path d="M59.1509 148.308C59.0525 148.308 58.9645 148.302 58.8951 148.289C58.8706 148.284 58.85 148.267 58.8412 148.243C58.8327 148.218 58.8369 148.191 58.853 148.171C58.8749 148.144 59.3929 147.506 59.8823 147.462C60.0354 147.45 60.1652 147.491 60.2763 147.588C60.4267 147.72 60.4164 147.838 60.3812 147.913C60.2598 148.173 59.5981 148.308 59.1509 148.308ZM59.0521 148.162C59.4798 148.186 60.1637 148.041 60.2529 147.85C60.2606 147.834 60.2832 147.786 60.184 147.699C60.1013 147.627 60.0056 147.597 59.8949 147.607C59.5736 147.636 59.2149 147.984 59.0521 148.162Z" fill="#263238"/>
<path d="M53.8059 146.706L50.5581 145.767C50.4398 145.733 50.3207 145.789 50.2717 145.902L49.1755 148.421C49.0618 148.682 49.2195 149.006 49.4937 149.08C50.6313 149.388 51.1957 149.477 52.6239 149.89C53.5026 150.144 54.7605 150.608 55.9739 150.958C57.1605 151.301 57.5909 150.101 57.1165 149.844C54.9887 148.692 54.821 147.902 54.239 147.026C54.134 146.869 53.979 146.756 53.8059 146.706Z" fill="#407BFF"/>
<path d="M58.9456 147.811L56.1734 145.844C56.0723 145.772 55.9421 145.786 55.8594 145.877L54.0207 147.894C53.83 148.103 53.8764 148.462 54.1119 148.623C55.0898 149.292 55.5952 149.564 56.8144 150.429C57.5645 150.961 59.0616 152.142 60.0973 152.877C61.1105 153.595 61.8993 152.604 61.5325 152.203C59.8875 150.406 59.5245 149.28 59.253 148.258C59.2037 148.074 59.093 147.916 58.9456 147.811Z" fill="#407BFF"/>
<path d="M56.6983 144.169L51.6987 141.63L52.2164 140.248L57.5525 142.921L56.6983 144.169Z" fill="#407BFF"/>
<path d="M50.1997 96.3064L49.7766 97.4224C49.7337 97.5089 49.834 97.5973 49.9753 97.5973H62.6428C62.7527 97.5973 62.8438 97.5421 62.8507 97.4717L62.9606 96.3557C62.9683 96.2782 62.8729 96.2129 62.7527 96.2129H50.3981C50.3077 96.2129 50.2273 96.2508 50.1997 96.3064Z" fill="#407BFF"/>
<path opacity="0.4" d="M50.1997 96.3064L49.7766 97.4224C49.7337 97.5089 49.834 97.5973 49.9753 97.5973H62.6428C62.7527 97.5973 62.8438 97.5421 62.8507 97.4717L62.9606 96.3557C62.9683 96.2782 62.8729 96.2129 62.7527 96.2129H50.3981C50.3077 96.2129 50.2273 96.2508 50.1997 96.3064Z" fill="white"/>
<path d="M52.1921 97.7182H51.8612C51.7954 97.7182 51.7452 97.6834 51.7498 97.6411L51.9049 96.1913C51.9095 96.1491 51.9669 96.1143 52.0332 96.1143H52.364C52.4298 96.1143 52.48 96.1491 52.4754 96.1913L52.3203 97.6411C52.3157 97.6838 52.2579 97.7182 52.1921 97.7182Z" fill="#407BFF"/>
<path d="M60.006 97.7182H59.6752C59.6093 97.7182 59.5592 97.6834 59.5638 97.6411L59.7188 96.1913C59.7234 96.1491 59.7809 96.1143 59.8471 96.1143H60.1779C60.2438 96.1143 60.294 96.1491 60.2894 96.1913L60.1343 97.6411C60.1297 97.6838 60.0719 97.7182 60.006 97.7182Z" fill="#407BFF"/>
<path d="M51.9009 163.989C57.5663 163.989 62.1591 163.649 62.1591 163.228C62.1591 162.808 57.5663 162.468 51.9009 162.468C46.2354 162.468 41.6426 162.808 41.6426 163.228C41.6426 163.649 46.2354 163.989 51.9009 163.989Z" fill="#F5F5F5"/>
<path d="M58.1524 162.155C56.3375 161.617 54.3399 160.923 53.1039 160.185C53.0694 160.165 53.033 160.15 52.9982 160.131V151.746H56.6488C57.2526 151.746 57.7419 151.246 57.7419 150.629C57.7419 150.012 57.2526 149.512 56.6488 149.512H52.9982V111.234H50.8122V149.512H47.1617C46.5582 149.512 46.0689 150.012 46.0689 150.629C46.0689 151.246 46.5582 151.746 47.1617 151.746H50.8122V160.131C50.7774 160.15 50.741 160.164 50.7065 160.185C49.4705 160.922 47.4729 161.616 45.658 162.155C45.0626 162.331 45.1882 163.227 45.8081 163.227H51.905H58.0019C58.6222 163.228 58.7478 162.331 58.1524 162.155Z" fill="#E0E0E0"/>
<path d="M58.7141 115.53H45.0962C44.0053 115.53 43.1128 114.618 43.1128 113.503V109.366C43.1128 108.251 44.0053 107.339 45.0962 107.339H58.7141C59.8049 107.339 60.6975 108.251 60.6975 109.366V113.503C60.6975 114.618 59.8049 115.53 58.7141 115.53Z" fill="#407BFF"/>
<path d="M44.9707 115.531V116.243C44.9707 116.83 45.596 117.31 46.3599 117.31H57.4498C58.2137 117.31 58.839 116.83 58.839 116.243V115.531H44.9707Z" fill="#407BFF"/>
<path opacity="0.3" d="M44.9707 115.531V116.243C44.9707 116.83 45.596 117.31 46.3599 117.31H57.4498C58.2137 117.31 58.839 116.83 58.839 116.243V115.531H44.9707Z" fill="white"/>
</g>
<defs>
<clipPath id="clip0_153_504">
<rect width="191.45" height="195.65" fill="white"/>
</clipPath>
</defs>
</svg>
